<svg width="15" height="16" viewBox="0 0 15 16" fill="none" xmlns="http://www.w3.org/2000/svg">
<title>Google</title>
<path d="M15.0001 7.81954C15.0001 7.29824 14.9574 6.77887 14.8683 6.26489H7.65112V9.20899H11.7843C11.6134 10.1588 11.0619 10.9991 10.2562 11.5316V13.4443H12.7237C14.1683 12.116 15.0001 10.1477 15.0001 7.81954Z" fill="#4285F4"/>
<path d="M7.6511 15.292C9.71588 15.292 11.4557 14.6149 12.7237 13.4462L10.2562 11.5335C9.56917 11.9992 8.68535 12.2644 7.6511 12.2644C5.65517 12.2644 3.96178 10.9196 3.35466 9.10889H0.814697V11.079C2.11435 13.6633 4.75837 15.292 7.6511 15.292Z" fill="#34A853"/>
<path d="M3.35647 9.10871C3.03532 8.16078 3.03532 7.13116 3.35647 6.18143V4.21313H0.81471C-0.27157 6.37426 -0.27157 8.91948 0.81471 11.0807L3.35647 9.10871Z" fill="#FBBC04"/>
<path d="M7.65109 3.0279C8.7429 3.0112 9.79565 3.42125 10.5866 4.17443L12.772 1.99275C11.3869 0.694251 9.55247 -0.0199992 7.65109 0.000426309C4.75837 0.000426309 2.11256 1.631 0.814697 4.21335L3.35646 6.18345C3.96178 4.37097 5.65517 3.0279 7.65109 3.0279Z" fill="#EA4335"/>
</svg>
